<svg width="24" height="24" viewBox="0 0 24 24" fill="none" xmlns="http://www.w3.org/2000/svg">
<g clip-path="url(#clip0_506_3664)">
<path d="M8.80901 14.92L14.919 3.88296C15.003 3.73096 15.087 3.58096 15.163 3.42396C15.232 3.28196 15.29 3.13896 15.328 2.98396C15.408 2.65796 15.386 2.31796 15.262 2.00696C15.1416 1.70056 14.9237 1.44228 14.642 1.27196C14.3656 1.10459 14.0404 1.03651 13.72 1.07896C13.4 1.12196 13.107 1.27296 12.876 1.50896C12.766 1.61896 12.676 1.74396 12.593 1.87696C12.501 2.02296 12.418 2.17496 12.334 2.32696L11.948 3.02396L11.561 2.32596C11.477 2.17496 11.394 2.02296 11.302 1.87696C11.221 1.7443 11.1261 1.62061 11.019 1.50796C10.7936 1.27455 10.4964 1.12349 10.175 1.07896C9.855 1.03674 9.53015 1.10482 9.25401 1.27196C8.97229 1.44228 8.75442 1.70056 8.63401 2.00696C8.51045 2.31772 8.48737 2.6594 8.56801 2.98396C8.60601 3.13896 8.66401 3.28196 8.73201 3.42396C8.80801 3.58096 8.89201 3.73096 8.97601 3.88296L10.224 6.13696L5.36201 14.919H2.03001C1.86201 14.919 1.69401 14.919 1.52701 14.929C1.37501 14.938 1.22701 14.957 1.07901 15C0.769012 15.09 0.497012 15.28 0.301012 15.548C0.105066 15.8177 -0.000552576 16.1424 -0.000732192 16.4758C-0.000911808 16.8092 0.104357 17.134 0.300012 17.404C0.497012 17.672 0.768012 17.861 1.07901 17.952C1.22701 17.995 1.37501 18.014 1.52701 18.023C1.69401 18.033 1.86201 18.033 2.03001 18.033H15.127C15.1668 17.9455 15.2002 17.8552 15.227 17.763C15.642 16.347 14.611 14.919 13.192 14.919L8.80901 14.92ZM3.11301 18.542L2.32101 20.042C2.23901 20.198 2.15601 20.352 2.08201 20.513C2.01372 20.6579 1.96012 20.8093 1.92201 20.965C1.84177 21.2981 1.86408 21.6477 1.98601 21.968C2.10701 22.286 2.32001 22.551 2.59301 22.723C2.86601 22.895 3.18201 22.965 3.49401 22.92C3.80801 22.876 4.09401 22.722 4.32001 22.48C4.42801 22.365 4.51601 22.238 4.59801 22.102C4.68801 21.952 4.76901 21.796 4.85101 21.64L6.00001 19.464C5.91001 19.314 5.05301 17.994 3.11301 18.542ZM23.699 15.536C23.5061 15.2749 23.2322 15.085 22.92 14.996C22.7739 14.9554 22.6236 14.9316 22.472 14.925C22.304 14.915 22.137 14.915 21.969 14.915H18.648L14.258 7.09996C13.6818 7.70452 13.3061 8.47206 13.182 9.29796C13.0208 10.3309 13.2132 11.388 13.728 12.298L19.002 21.691C19.086 21.841 19.169 21.991 19.261 22.135C19.345 22.265 19.435 22.388 19.544 22.499C19.775 22.731 20.068 22.879 20.389 22.922C20.71 22.965 21.032 22.898 21.311 22.732C21.5916 22.5641 21.8097 22.3092 21.932 22.006C22.057 21.699 22.078 21.364 21.998 21.042C21.9585 20.8919 21.9032 20.7464 21.833 20.608C21.758 20.453 21.673 20.305 21.589 20.155L20.373 17.989H21.969C22.137 17.989 22.304 17.989 22.472 17.98C22.624 17.971 22.772 17.952 22.92 17.91C23.2327 17.8208 23.507 17.6306 23.7 17.369C23.8955 17.1036 24.0006 16.7825 24 16.453C24.0006 16.1234 23.8955 15.8023 23.7 15.537" fill="#1B1F33"/>
</g>
<defs>
<clipPath id="clip0_506_3664">
<rect width="24" height="24" fill="white"/>
</clipPath>
</defs>
</svg>
