<svg width="65" height="39" viewBox="0 0 65 39" fill="none" xmlns="http://www.w3.org/2000/svg">
<path d="M10.0566 4.90909C9.49534 2.29091 6.23668 1.45455 4.67751 1.36364L18.9439 0.545456L13.5648 21.5455L22.9198 10.3636C23.0757 10.4545 23.6682 10.7455 24.7908 11.1818C22.3585 25.1455 30.3258 17.9091 34.6136 12.5455H36.9523V35.4545L24.7908 37.9091C24.9467 37.8182 26.2876 35.2364 30.4038 25.6364C23.1069 33.2727 19.7235 29.3636 18.9439 26.4545L0 39C2.96242 29.3636 9.12114 9.05455 10.0566 4.90909Z" fill="white"/>
<path d="M31.3394 4.36364L36.0169 0L39.0572 4.90909L34.6136 9.54545L31.3394 4.36364Z" fill="white"/>
<path d="M50.7509 3.54546H51.2186C58.4688 2.72727 66.4205 5.18182 64.7834 18.5455C63.4737 29.2364 47.2428 35 39.291 36.5455C40.5383 26.4545 43.0798 5.72727 43.2669 3.54546C43.0798 2.23637 40.2265 1 38.8232 0.545456H50.7509V3.54546ZM47.6493 26.5973L48.0243 26.438C49.3216 25.8879 51.3581 24.8584 53.2609 23.5531C55.1524 22.2556 56.9582 20.6553 57.7397 18.9466L57.7425 18.9402C57.8662 18.6516 58.2822 17.5408 58.5501 16.2219C58.815 14.9177 58.9514 13.3338 58.4441 12.1507L58.3907 12.0266L58.2733 12.0037L58.0193 11.9579C56.5495 11.7096 52.1883 11.1658 50.0735 10.9107L49.8542 10.8841L47.6493 26.5973Z" fill="white"/>
<path d="M49.8154 17.4545C51.9203 16.9091 51.9203 16.3636 53.3236 13.0909C53.5574 15.8182 54.2591 16.9091 56.3639 18C54.2591 18.2727 53.3236 21 52.6219 22.3636C52.2477 18.4364 50.5171 17.7273 49.8154 17.4545Z" fill="white"/>
</svg>
