<svg width="30" height="30" viewBox="0 0 30 30" fill="none" xmlns="http://www.w3.org/2000/svg">
<path fill-rule="evenodd" clip-rule="evenodd" d="M6.25 1.25C4.92392 1.25 3.65215 1.77678 2.71447 2.71447C1.77678 3.65215 1.25 4.92392 1.25 6.25V23.75C1.25 25.0761 1.77678 26.3479 2.71447 27.2855C3.65215 28.2232 4.92392 28.75 6.25 28.75H23.75C25.0761 28.75 26.3479 28.2232 27.2855 27.2855C28.2232 26.3479 28.75 25.0761 28.75 23.75V6.25C28.75 4.92392 28.2232 3.65215 27.2855 2.71447C26.3479 1.77678 25.0761 1.25 23.75 1.25H6.25ZM5.8325 5.625C5.69566 5.67585 5.57259 5.75796 5.47309 5.86477C5.37359 5.97159 5.30041 6.10017 5.25938 6.24026C5.21835 6.38035 5.2106 6.5281 5.23675 6.67171C5.2629 6.81533 5.32222 6.95086 5.41 7.0675L12.4275 16.38L5.03375 24.3113L4.97875 24.375H7.5375L13.575 17.9013L18.215 24.0613C18.3227 24.2038 18.4688 24.3127 18.6363 24.375H24.1638C24.3004 24.3239 24.4232 24.2416 24.5224 24.1346C24.6217 24.0277 24.6946 23.8991 24.7353 23.759C24.7761 23.619 24.7837 23.4713 24.7573 23.3278C24.731 23.1843 24.6716 23.049 24.5838 22.9325L17.5663 13.62L25.0213 5.625H22.4588L16.4213 12.1L11.7788 5.94C11.6713 5.79695 11.5251 5.68765 11.3575 5.625H5.8325ZM19.4325 22.56L8.03875 7.44H10.5625L21.955 22.5588L19.4325 22.56Z" fill="white"/>
</svg>
